<mxfile host="app.diagrams.net" agent="Mozilla/5.0 (Macintosh; Intel Mac OS X 10_15_7) AppleWebKit/605.1.15 (KHTML, like Gecko) Version/17.6 Safari/605.1.15" version="26.0.4">
  <diagram name="第 1 页" id="CurxN6nQmoxrVHs0YRyW">
    <mxGraphModel dx="1377" dy="715" grid="1" gridSize="10" guides="1" tooltips="1" connect="1" arrows="1" fold="1" page="1" pageScale="1" pageWidth="827" pageHeight="1169" math="0" shadow="0">
      <root>
        <mxCell id="0" />
        <mxCell id="1" parent="0" />
        <mxCell id="ZvwHR2xYxuJEmiPHURpS-8" style="edgeStyle=orthogonalEdgeStyle;rounded=0;orthogonalLoop=1;jettySize=auto;html=1;exitX=1;exitY=0.5;exitDx=0;exitDy=0;" edge="1" parent="1" source="ZvwHR2xYxuJEmiPHURpS-2" target="ZvwHR2xYxuJEmiPHURpS-3">
          <mxGeometry relative="1" as="geometry" />
        </mxCell>
        <mxCell id="ZvwHR2xYxuJEmiPHURpS-9" value="导出" style="edgeLabel;html=1;align=center;verticalAlign=middle;resizable=0;points=[];" vertex="1" connectable="0" parent="ZvwHR2xYxuJEmiPHURpS-8">
          <mxGeometry x="0.0175" y="-1" relative="1" as="geometry">
            <mxPoint as="offset" />
          </mxGeometry>
        </mxCell>
        <mxCell id="ZvwHR2xYxuJEmiPHURpS-2" value="DB2" style="shape=datastore;whiteSpace=wrap;html=1;fillColor=#f5f5f5;fontColor=#333333;strokeColor=#666666;" vertex="1" parent="1">
          <mxGeometry x="160" y="240" width="90" height="140" as="geometry" />
        </mxCell>
        <mxCell id="ZvwHR2xYxuJEmiPHURpS-10" style="edgeStyle=orthogonalEdgeStyle;rounded=0;orthogonalLoop=1;jettySize=auto;html=1;" edge="1" parent="1" source="ZvwHR2xYxuJEmiPHURpS-3" target="ZvwHR2xYxuJEmiPHURpS-7">
          <mxGeometry relative="1" as="geometry" />
        </mxCell>
        <mxCell id="ZvwHR2xYxuJEmiPHURpS-11" value="导入" style="edgeLabel;html=1;align=center;verticalAlign=middle;resizable=0;points=[];" vertex="1" connectable="0" parent="ZvwHR2xYxuJEmiPHURpS-10">
          <mxGeometry x="-0.0345" y="3" relative="1" as="geometry">
            <mxPoint as="offset" />
          </mxGeometry>
        </mxCell>
        <mxCell id="ZvwHR2xYxuJEmiPHURpS-3" value="" style="sketch=0;pointerEvents=1;shadow=0;dashed=0;html=1;strokeColor=none;fillColor=#505050;labelPosition=center;verticalLabelPosition=bottom;verticalAlign=top;outlineConnect=0;align=center;shape=mxgraph.office.users.csv_file;" vertex="1" parent="1">
          <mxGeometry x="364" y="275" width="100" height="70" as="geometry" />
        </mxCell>
        <mxCell id="ZvwHR2xYxuJEmiPHURpS-7" value="CirroData-OLAP" style="shape=datastore;whiteSpace=wrap;html=1;fillColor=#dae8fc;strokeColor=#6c8ebf;" vertex="1" parent="1">
          <mxGeometry x="580" y="245" width="110" height="130" as="geometry" />
        </mxCell>
        <mxCell id="ZvwHR2xYxuJEmiPHURpS-12" value="CSV File" style="text;html=1;align=center;verticalAlign=middle;whiteSpace=wrap;rounded=0;" vertex="1" parent="1">
          <mxGeometry x="380" y="240" width="60" height="30" as="geometry" />
        </mxCell>
      </root>
    </mxGraphModel>
  </diagram>
</mxfile>
